<svg width="24" height="24" viewBox="0 0 24 24" fill="none" xmlns="http://www.w3.org/2000/svg">
<g clip-path="url(#clip0)">
<path fill-rule="evenodd" clip-rule="evenodd" d="M6.34318 4.34318C7.84348 2.84288 9.87833 2.00002 12.0001 2.00002C14.1218 2.00002 16.1567 2.84288 17.657 4.34318C19.1573 5.84348 20.0001 7.87833 20.0001 10.0001C20.0001 13.0982 17.9844 16.1044 15.7741 18.4374C14.6895 19.5823 13.6014 20.5196 12.7834 21.171C12.479 21.4134 12.2131 21.6154 12.0001 21.7727C11.7871 21.6154 11.5212 21.4134 11.2167 21.171C10.3987 20.5196 9.31067 19.5823 8.226 18.4374C6.01577 16.1044 4.00002 13.0982 4.00002 10.0001C4.00002 7.87833 4.84288 5.84348 6.34318 4.34318ZM11.4448 23.8319C11.4451 23.8321 11.4454 23.8322 12.0001 23.0002L12.5548 23.8322C12.2189 24.0562 11.7807 24.0558 11.4448 23.8319ZM11.4448 23.8319L12.0001 23.0002C12.5548 23.8322 12.5558 23.8316 12.5561 23.8314L12.5582 23.83L12.5648 23.8255L12.5878 23.81C12.6072 23.7968 12.635 23.7778 12.6705 23.7532C12.7416 23.704 12.8436 23.6323 12.9723 23.5394C13.2295 23.3536 13.5937 23.0824 14.0293 22.7356C14.8988 22.0432 16.0607 21.043 17.2261 19.8129C19.5159 17.3959 22.0002 13.902 22.0002 10.0001C22.0002 7.34789 20.9466 4.80433 19.0712 2.92895C17.1958 1.05358 14.6523 0 12.0001 0C9.34789 0 6.80433 1.05358 4.92895 2.92895C3.05358 4.80433 2 7.34789 2 10.0001C2 13.902 4.48428 17.3959 6.77408 19.8129C7.93943 21.043 9.10139 22.0432 9.97088 22.7356C10.4064 23.0824 10.7706 23.3536 11.0279 23.5394C11.1565 23.6323 11.2586 23.704 11.3296 23.7532C11.3651 23.7778 11.3929 23.7968 11.4124 23.81L11.4353 23.8255L11.442 23.83L11.4448 23.8319ZM10 10C10 8.89545 10.8955 8.00002 12 8.00002C13.1046 8.00002 14 8.89545 14 10C14 11.1046 13.1046 12 12 12C10.8955 12 10 11.1046 10 10ZM12 6C9.79087 6 8 7.79087 8 10C8 12.2092 9.79087 14.0001 12 14.0001C14.2092 14.0001 16.0001 12.2092 16.0001 10C16.0001 7.79087 14.2092 6 12 6Z" fill="#F74F78"/>
</g>
<defs>
<clipPath id="clip0">
<rect width="24" height="24" fill="white"/>
</clipPath>
</defs>
</svg>
